# xmcd
# 
# Track frame offsets:
#     179
#     18857
#     35425
#     52670
#     63190
#     77365
#     90821
#     105618
#     118349
#     133122
#     147727
#     164058
#     184142
#     206366
# 
# Disc length: 2952
# 
# Revision: 1
# Processed by: cddbd v1.5.2PL0 Copyright (c) Steve Scherf et al.
# Submitted via: fre:ac v1.0.17
# 
DISCID=b50b860e
DTITLE=The Moondog Show - Marfa
DYEAR=2007
DGENRE=Blues
TTITLE0=Everything is Free
TTITLE1=Guitar shaped Swimming Pool
TTITLE2=Armadillo
TTITLE3=Tender
TTITLE4=Groovin'
TTITLE5=Almost the Moon
TTITLE6=Radioland
TTITLE7=Taxi
TTITLE8=The Marfa Queen
TTITLE9=Paradise right here
TTITLE10=Flowers grow
TTITLE11=A Day without a Plan
TTITLE12=When the Spell is broken
TTITLE13=The Content
EXTD=
EXTT0=
EXTT1=
EXTT2=
EXTT3=
EXTT4=
EXTT5=
EXTT6=
EXTT7=
EXTT8=
EXTT9=
EXTT10=
EXTT11=
EXTT12=
EXTT13=
PLAYORDER=
